# xmcd CD database file
#
# Track frame offsets:
#	183
#	9720
#	18938
#	31283
#	43958
#	53363
#	68030
#	77333
#	85840
#	99358
#	109980
#	119543
#	132120
#	142773
#	151713
#	162613
#	175175
#	186965
#	199855
#	211713
#
# Disc length: 2977 seconds
#
# Revision: 2
# Processed by: cddbd v1.4b41PL1 Copyright (c) Steve Scherf et al.
# Submitted via: Feurio! 1.50.2ß - http://www.feurio.com
#
DISCID=fc0b9f14
DTITLE=Elvis Presley - The King
DYEAR=1900
DGENRE=
TTITLE0=Heartbreak Hotel
TTITLE1=Don`t Be Cruel
TTITLE2=Love Me Tender
TTITLE3=Don`t
TTITLE4=I Need Your Love Tonight
TTITLE5=It`s Now Or Never
TTITLE6=Wooden Heart
TTITLE7=Surrender
TTITLE8=Can`t Help Falling In Love
TTITLE9=Good Luck Charme
TTITLE10=Return To Sender
TTITLE11=Kiss Me Quick
TTITLE12=You`re The Devil In Disguise
TTITLE13=Mexico
TTITLE14=Crying In The Chapel
TTITLE15=In The Ghetto
TTITLE16=The Wonder Of You
TTITLE17=Burning Love
TTITLE18=Way Down
TTITLE19=Are You Lonesome Tonight
EXTD=
EXTT0=
EXTT1=
EXTT2=
EXTT3=
EXTT4=
EXTT5=
EXTT6=
EXTT7=
EXTT8=
EXTT9=
EXTT10=
EXTT11=
EXTT12=
EXTT13=
EXTT14=
EXTT15=
EXTT16=
EXTT17=
EXTT18=
EXTT19=
PLAYORDER=
